<?xml version="1.0" standalone="no"?>
<!DOCTYPE svg PUBLIC "-//W3C//DTD SVG 20010904//EN"
 "http://www.w3.org/TR/2001/REC-SVG-20010904/DTD/svg10.dtd">
<svg version="1.0" xmlns="http://www.w3.org/2000/svg"
 width="1000.000000pt" height="1000.000000pt" viewBox="0 0 1000.000000 1000.000000"
 preserveAspectRatio="xMidYMid meet">

<g transform="translate(0.000000,1000.000000) scale(0.100000,-0.100000)"
fill="#000000" stroke="none">
<path d="M3092 6945 c-149 -33 -276 -116 -418 -274 -125 -139 -168 -201 -206
-298 -41 -105 -54 -203 -39 -294 54 -340 407 -479 755 -297 88 46 208 157 318
293 177 220 221 444 126 644 -89 187 -302 277 -536 226z"/>
<path d="M5420 6593 c-256 -286 -232 -696 50 -837 91 -45 165 -60 265 -53 190
15 364 109 498 271 36 44 38 48 12 28 -173 -130 -286 -174 -446 -173 -307 1
-506 262 -434 568 16 69 62 177 95 223 34 47 16 35 -40 -27z"/>
<path d="M3961 6576 c-110 -133 -163 -265 -164 -411 -1 -145 38 -248 129 -338
153 -150 391 -168 625 -46 78 41 205 147 250 210 17 25 10 22 -45 -20 -208
-158 -462 -187 -652 -76 -137 81 -219 269 -193 449 12 91 27 136 74 224 19 36
33 67 32 69 -2 1 -27 -26 -56 -61z"/>
<path d="M7390 6424 c-128 -34 -202 -114 -350 -379 -123 -222 -192 -303 -294
-351 -28 -13 -67 -24 -87 -24 -20 0 -39 -3 -43 -7 -3 -4 13 -26 36 -50 l42
-43 -219 0 -220 0 60 -58 60 -57 -37 -3 c-37 -3 -48 -14 -28 -27 37 -23 118
-211 140 -327 l11 -58 270 -2 269 -3 -157 -170 c-86 -93 -326 -353 -532 -576
-207 -223 -416 -449 -464 -502 l-88 -97 834 0 835 0 14 58 c14 56 15 57 53 62
l38 5 53 205 c29 113 53 211 53 217 1 10 -89 13 -403 15 l-404 3 235 260 c791
874 933 1034 933 1047 0 4 -99 8 -220 8 -121 0 -220 3 -220 6 0 17 108 213
141 254 40 50 123 100 168 100 63 1 56 13 -106 191 -87 96 -187 207 -222 247
-35 40 -71 72 -80 71 -9 0 -41 -7 -71 -15z m271 -236 c112 -116 204 -216 204
-222 0 -6 -21 -14 -46 -17 -55 -8 -96 -28 -143 -70 -47 -41 -72 -84 -121 -204
l-41 -100 -390 -3 -390 -2 -38 39 -37 38 48 5 c110 11 227 95 320 230 27 40
84 134 126 208 93 164 103 179 158 237 44 47 88 72 125 73 14 0 86 -68 225
-212z"/>
<path d="M2566 5620 c-39 -12 -74 -47 -81 -81 -5 -21 -17 -34 -40 -43 -18 -8
-41 -26 -50 -39 -9 -15 -52 -206 -101 -459 -47 -238 -123 -627 -170 -864 -46
-237 -84 -434 -84 -437 0 -4 202 -7 449 -7 371 0 450 2 454 14 3 7 9 34 12 60
l7 46 42 0 42 0 34 171 33 170 27 -63 c60 -143 163 -256 293 -321 131 -65 160
-69 482 -74 l290 -4 49 58 49 58 -269 6 c-278 7 -324 13 -435 55 -434 164
-551 772 -243 1270 l54 89 -46 -50 c-26 -27 -71 -86 -100 -130 -30 -44 -54
-76 -54 -72 0 11 48 104 77 151 18 28 35 91 64 240 39 197 39 201 21 225 -10
14 -31 28 -46 32 -38 11 -725 9 -760 -1z"/>
<path d="M4095 5292 c-91 -27 -162 -70 -233 -141 -77 -79 -102 -118 -46 -73
50 39 126 77 187 92 71 18 212 9 263 -18 68 -35 132 -121 149 -199 l7 -33 64
0 c63 0 64 0 64 28 0 45 -28 149 -54 200 -31 61 -79 109 -136 135 -62 28 -185
33 -265 9z"/>
<path d="M5596 5295 c-85 -22 -173 -74 -245 -147 -88 -89 -93 -106 -16 -53 93
63 182 89 293 83 63 -3 99 -10 128 -26 59 -30 119 -103 142 -170 l19 -57 63
-3 63 -3 -7 58 c-16 144 -76 250 -169 297 -70 36 -178 44 -271 21z"/>
<path d="M4848 5168 c-138 -163 -181 -258 -224 -495 -3 -15 -12 -23 -23 -23
-16 0 -21 -11 -28 -67 -10 -81 -7 -250 4 -313 8 -41 11 -45 41 -48 l32 -3 -20
-26 c-25 -32 -25 -42 2 -106 58 -140 169 -262 293 -322 132 -65 167 -70 489
-70 l288 0 53 60 53 60 -276 1 c-316 1 -361 8 -501 75 -167 81 -287 246 -335
458 -59 264 -2 553 158 800 25 39 44 71 42 71 -2 0 -24 -24 -48 -52z"/>
<path d="M3650 4590 l0 -60 434 0 434 0 7 43 c3 23 9 50 11 60 5 16 -21 17
-440 17 l-446 0 0 -60z"/>
<path d="M5140 4585 l0 -65 594 0 c327 0 597 3 599 8 3 4 8 33 12 65 l7 57
-606 0 -606 0 0 -65z"/>
<path d="M5989 4033 c-13 -16 -12 -17 4 -4 16 13 21 21 13 21 -2 0 -10 -8 -17
-17z"/>
<path d="M5849 3873 c-13 -16 -12 -17 4 -4 16 13 21 21 13 21 -2 0 -10 -8 -17
-17z"/>
<path d="M2243 3608 c-44 -21 -40 -69 8 -93 17 -10 26 -21 23 -29 -8 -21 -33
-27 -56 -15 -17 9 -19 8 -16 -8 7 -35 83 -28 97 10 11 28 -3 55 -35 67 -47 18
-19 57 32 44 33 -8 31 14 -2 26 -14 6 -26 10 -27 9 -1 0 -12 -5 -24 -11z"/>
<path d="M3002 3613 c-46 -9 -77 -103 -48 -148 23 -35 77 -35 105 1 23 29 36
83 27 112 -5 15 -50 47 -59 41 -1 -1 -12 -4 -25 -6z m42 -29 c32 -12 12 -108
-26 -120 -32 -10 -51 15 -45 60 7 51 34 74 71 60z"/>
<path d="M3623 3610 c-48 -19 -76 -116 -44 -154 20 -24 78 -21 92 6 12 22 14
22 -35 2 -7 -3 -21 3 -31 12 -21 21 -14 70 15 98 16 16 23 18 44 8 20 -9 25
-8 30 4 4 9 -3 18 -20 24 -14 6 -26 10 -27 9 -1 0 -12 -4 -24 -9z"/>
<path d="M3883 3608 c-41 -20 -63 -117 -34 -152 21 -25 74 -20 100 8 28 30 39
103 19 128 -17 22 -57 30 -85 16z m51 -24 c24 -9 21 -79 -4 -104 -24 -24 -43
-25 -60 -5 -15 18 -6 78 16 100 17 17 25 18 48 9z"/>
<path d="M5148 3609 c-24 -14 -39 -44 -32 -64 4 -8 19 -22 35 -30 17 -10 26
-21 23 -29 -8 -21 -33 -27 -56 -15 -17 9 -19 8 -16 -8 2 -14 12 -18 43 -18 32
0 42 5 52 24 15 30 2 58 -33 71 -13 5 -24 14 -24 19 0 18 29 32 54 25 34 -8
35 13 0 26 -30 12 -25 12 -46 -1z"/>
<path d="M5734 3609 c-44 -22 -66 -116 -35 -153 21 -25 74 -20 100 8 28 30 39
103 19 128 -17 22 -57 30 -84 17z m50 -25 c33 -13 11 -108 -27 -120 -31 -10
-51 18 -43 60 7 34 29 66 46 66 5 0 15 -3 24 -6z"/>
<path d="M6648 3609 c-50 -19 -76 -119 -40 -152 29 -26 92 -20 92 9 0 10 -6
11 -26 4 -47 -18 -68 22 -45 83 12 30 43 42 71 27 16 -9 20 -8 20 4 0 13 -30
38 -42 35 -2 0 -15 -5 -30 -10z"/>
<path d="M7213 3610 c-48 -19 -76 -116 -44 -154 20 -24 78 -21 92 6 12 22 14
22 -35 2 -7 -3 -21 3 -31 12 -21 21 -14 70 15 98 16 16 23 18 44 8 20 -9 25
-8 30 4 4 9 -3 18 -20 24 -14 6 -26 10 -27 9 -1 0 -12 -4 -24 -9z"/>
<path d="M7484 3597 c-33 -28 -27 -60 16 -82 18 -9 27 -21 24 -29 -8 -21 -33
-27 -56 -15 -17 9 -19 8 -16 -8 4 -22 48 -29 78 -13 32 17 24 71 -12 88 -49
23 -26 59 28 46 33 -8 31 14 -2 26 -33 13 -29 14 -60 -13z"/>
<path d="M1982 3546 c-15 -78 -15 -106 -2 -106 6 0 10 2 10 4 0 2 7 40 15 83
8 43 15 79 15 81 0 1 -6 2 -13 2 -9 0 -18 -23 -25 -64z"/>
<path d="M2056 3593 c-14 -49 -28 -144 -22 -151 12 -11 25 20 32 75 3 29 10
53 13 53 4 0 14 -28 22 -62 12 -51 18 -64 35 -66 19 -3 23 5 34 65 6 37 14 76
17 86 2 10 -1 17 -10 17 -9 0 -18 -23 -27 -72 -13 -71 -13 -72 -22 -38 -5 19
-14 52 -19 73 -11 40 -43 52 -53 20z"/>
<path d="M2340 3595 c0 -9 9 -15 21 -15 19 0 21 -4 15 -35 -3 -19 -9 -51 -12
-70 -4 -23 -2 -35 5 -35 14 0 16 7 31 82 9 46 15 57 32 60 12 2 23 9 26 16 3
9 -13 12 -57 12 -48 0 -61 -3 -61 -15z"/>
<path d="M2471 3543 c-7 -38 -14 -76 -17 -85 -4 -12 0 -18 10 -18 9 0 16 2 16
4 0 2 7 40 15 83 8 43 15 79 15 81 0 1 -6 2 -14 2 -9 0 -18 -22 -25 -67z"/>
<path d="M2530 3595 c0 -9 9 -15 21 -15 20 0 21 -4 14 -47 -3 -27 -9 -58 -12
-70 -3 -16 -1 -23 9 -23 10 0 19 21 27 70 12 64 15 70 37 70 15 0 24 6 24 15
0 12 -13 15 -60 15 -47 0 -60 -3 -60 -15z"/>
<path d="M2675 3600 c-3 -5 -8 -39 -12 -76 -7 -73 0 -84 49 -84 36 0 64 32 72
83 4 23 9 52 13 65 4 15 1 22 -10 22 -10 0 -18 -18 -26 -62 -13 -74 -36 -100
-70 -79 -11 7 -11 18 -2 60 6 29 11 59 11 66 0 17 -16 20 -25 5z"/>
<path d="M2820 3595 c0 -9 9 -15 21 -15 20 0 21 -4 14 -47 -3 -27 -9 -59 -12
-72 -4 -17 -2 -22 8 -19 13 4 21 29 33 101 6 31 11 37 31 37 16 0 25 6 25 15
0 12 -13 15 -60 15 -47 0 -60 -3 -60 -15z"/>
<path d="M3191 3548 c-7 -35 -15 -73 -18 -85 -5 -22 -2 -23 51 -23 43 0 56 3
56 15 0 11 -11 15 -39 15 -34 0 -38 3 -34 20 4 16 14 20 44 20 28 0 39 4 39
15 0 10 -11 15 -35 15 -28 0 -35 4 -35 20 0 17 7 20 39 20 25 0 41 5 45 15 4
12 -5 15 -48 15 l-53 0 -12 -62z"/>
<path d="M3336 3588 c-14 -65 -26 -130 -26 -138 0 -6 20 -10 45 -10 33 0 45 4
45 15 0 10 -10 15 -30 15 -34 0 -33 -4 -16 78 11 52 11 62 0 62 -8 0 -16 -10
-18 -22z"/>
<path d="M3450 3606 c0 -2 -7 -40 -15 -83 -8 -43 -15 -79 -15 -81 0 -2 24 -2
53 0 58 3 67 21 12 26 -19 2 -35 6 -35 10 1 19 18 31 49 34 48 4 53 28 7 28
-29 0 -36 4 -36 20 0 17 7 20 40 20 29 0 40 4 40 15 0 11 -12 15 -50 15 -27 0
-50 -2 -50 -4z"/>
<path d="M3712 3598 c3 -7 14 -14 25 -16 20 -3 20 -5 7 -65 -17 -78 -17 -77 0
-77 10 0 18 22 27 70 11 63 14 70 36 70 14 0 23 6 23 15 0 12 -13 15 -61 15
-44 0 -60 -3 -57 -12z"/>
<path d="M4011 3543 c-7 -38 -14 -76 -17 -85 -3 -12 0 -18 10 -18 9 0 18 15
23 42 l8 42 19 -42 c11 -23 25 -42 33 -42 17 0 16 4 -2 40 -14 26 -13 29 9 44
30 19 42 52 26 71 -7 9 -30 15 -55 15 l-43 0 -11 -67z m87 20 c-2 -11 -14 -19
-31 -21 -22 -3 -27 1 -27 17 0 17 6 21 31 21 24 0 30 -4 27 -17z"/>
<path d="M4165 3534 c-50 -96 -50 -94 -32 -94 7 0 19 11 25 25 17 36 69 36 78
0 4 -14 11 -24 16 -23 12 4 12 0 4 91 -7 70 -10 77 -29 77 -17 0 -31 -17 -62
-76z m65 11 c0 -28 -4 -35 -20 -35 -23 0 -25 9 -8 45 16 35 28 31 28 -10z"/>
<path d="M4310 3553 c-24 -127 -27 -113 24 -113 34 0 46 4 46 15 0 10 -10 15
-31 15 -24 0 -29 4 -25 18 2 9 7 33 11 52 4 19 9 43 11 53 4 11 0 17 -10 17
-10 0 -18 -18 -26 -57z"/>
<path d="M4492 3540 c-17 -101 -18 -100 27 -100 49 0 87 29 102 80 10 33 9 43
-5 65 -14 21 -24 25 -64 25 l-48 0 -12 -70z m103 30 c9 -15 -4 -68 -22 -85 -8
-8 -26 -15 -39 -15 -24 0 -25 2 -18 48 3 26 8 50 11 55 6 11 61 9 68 -3z"/>
<path d="M4666 3588 c-14 -65 -26 -130 -26 -138 0 -6 23 -10 50 -10 38 0 50 4
50 15 0 11 -11 15 -36 15 -28 0 -35 3 -32 18 2 11 16 19 42 22 54 7 60 30 8
30 -35 0 -39 2 -35 20 4 16 14 20 44 20 28 0 39 4 39 15 0 11 -12 15 -50 15
-43 0 -50 -3 -54 -22z"/>
<path d="M4805 3598 c-6 -18 -25 -129 -25 -145 0 -10 12 -13 42 -11 50 4 66
28 18 28 -31 0 -32 1 -26 33 17 83 18 107 7 107 -6 0 -14 -6 -16 -12z"/>
<path d="M4982 3563 c-6 -27 -14 -65 -17 -86 l-7 -38 53 3 c60 3 69 21 14 26
-19 2 -35 6 -35 10 1 19 18 31 49 34 48 4 53 28 7 28 -29 0 -36 4 -36 20 0 17
7 20 40 20 29 0 40 4 40 15 0 11 -12 15 -49 15 l-49 0 -10 -47z"/>
<path d="M5240 3595 c0 -9 9 -15 21 -15 23 0 23 -8 3 -107 -4 -22 -3 -33 5
-33 14 0 16 7 31 82 9 46 15 57 32 60 12 2 23 9 26 16 3 9 -13 12 -57 12 -48
0 -61 -3 -61 -15z"/>
<path d="M5382 3525 c-28 -56 -37 -85 -29 -85 8 0 19 12 25 26 10 21 18 25 45
22 24 -2 33 -8 35 -25 2 -13 10 -23 18 -23 12 0 14 7 10 28 -3 15 -8 53 -12
85 -5 50 -9 57 -28 57 -17 0 -30 -18 -64 -85z m68 20 c0 -28 -4 -35 -20 -35
-23 0 -25 9 -8 45 16 35 28 31 28 -10z"/>
<path d="M5531 3543 c-7 -38 -14 -76 -17 -85 -5 -15 2 -18 41 -18 65 0 105 39
105 102 0 56 -13 68 -71 68 l-47 0 -11 -67z m99 0 c0 -43 -23 -73 -57 -73 -25
0 -27 9 -17 73 6 34 9 37 40 37 32 0 34 -2 34 -37z"/>
<path d="M5932 3541 c-17 -102 -18 -101 27 -101 72 0 127 78 98 139 -10 22
-20 26 -63 29 l-51 3 -11 -70z m103 20 c6 -21 -11 -72 -28 -83 -7 -4 -23 -8
-36 -8 -22 0 -23 2 -16 48 9 60 10 62 45 62 19 0 31 -6 35 -19z"/>
<path d="M6106 3593 c-6 -21 -26 -133 -26 -145 0 -4 23 -8 50 -8 38 0 50 4 50
15 0 11 -11 15 -36 15 -28 0 -35 3 -32 17 2 10 12 19 23 21 75 11 92 32 26 32
-34 0 -38 3 -34 20 4 16 14 20 44 20 28 0 39 4 39 15 0 23 -97 21 -104 -2z"/>
<path d="M6312 3598 c3 -7 19 -14 36 -16 18 -2 32 -6 32 -9 0 -3 -22 -30 -50
-59 -27 -29 -50 -58 -50 -63 0 -7 24 -11 60 -11 47 0 60 3 60 15 0 11 -11 15
-42 15 l-41 0 56 59 c32 33 57 64 57 70 0 7 -24 11 -61 11 -44 0 -60 -3 -57
-12z"/>
<path d="M6461 3535 c-23 -41 -41 -79 -41 -85 0 -19 20 -10 32 15 9 19 19 25
45 25 29 0 33 -3 33 -25 0 -16 6 -25 16 -25 13 0 14 9 9 58 -11 98 -15 112
-35 112 -12 0 -31 -24 -59 -75z m59 15 c0 -33 -3 -40 -20 -40 -11 0 -20 2 -20
5 0 7 33 75 37 75 2 0 3 -18 3 -40z"/>
<path d="M6752 3525 c-31 -64 -38 -85 -27 -85 9 0 21 11 27 25 9 19 19 25 45
25 29 0 33 -3 33 -25 0 -16 6 -25 16 -25 12 0 14 7 10 28 -2 15 -8 53 -11 85
-6 50 -9 57 -28 57 -18 0 -31 -17 -65 -85z m68 25 c0 -33 -3 -40 -20 -40 -11
0 -20 2 -20 5 0 7 33 75 37 75 2 0 3 -18 3 -40z"/>
<path d="M6900 3595 c0 -9 9 -15 21 -15 18 0 20 -4 15 -25 -15 -57 -18 -115
-8 -115 11 0 17 14 27 70 11 61 15 69 37 72 12 2 23 9 26 16 3 9 -13 12 -57
12 -48 0 -61 -3 -61 -15z"/>
<path d="M7040 3606 c0 -2 -7 -40 -15 -83 -8 -43 -15 -79 -15 -81 0 -2 23 -2
52 0 63 4 80 28 20 28 -35 0 -39 3 -35 19 4 14 15 21 41 23 48 4 55 28 8 28
-29 0 -36 4 -36 20 0 17 7 20 39 20 25 0 41 5 45 15 4 12 -5 15 -49 15 -30 0
-55 -2 -55 -4z"/>
<path d="M7320 3530 c-44 -87 -45 -90 -30 -90 6 0 16 11 22 25 9 19 19 25 45
25 29 0 33 -3 33 -25 0 -16 6 -25 16 -25 14 0 15 9 10 68 -9 89 -14 102 -37
102 -14 0 -30 -22 -59 -80z m62 -12 c-3 -9 -42 -11 -42 -3 0 2 8 21 18 41 l17
37 6 -34 c3 -19 3 -37 1 -41z"/>
</g>
</svg>
